name rise44.8762peak52.3436fall86.788.mot
datacolumns 19
datarows 33
range 2.69165700000000 2.74499200000000
endheader
time	ground_force1_vx	ground_force1_vy	ground_force1_vz	ground_force1_px	ground_force1_py	ground_force1_pz	ground_force2_vx	ground_force2_vy	ground_force2_vz	ground_force2_px	ground_force2_py	ground_force2_pz	ground_torque1_x	ground_torque1_y	ground_torque1_z	ground_torque2_x	ground_torque2_y	ground_torque2_z	
2.69165700000000	1.29120500000000	722.95408299999997	49.55479800000000	0.19558500000000	0.00000000000000	0.10475300000000	0.00000000000000	0.00000000000000	0.00000000000000	0.00000000000000	0.00000000000000	0.00000000000000	0.00000000000000	18.34624200000000	0.00000000000000	0.00000000000000	0.00000000000000	0.00000000000000	
2.69332500000000	0.79141100000000	723.70308399999999	49.59344000000000	0.19469800000000	0.00000000000000	0.10470000000000	0.00000000000000	0.00000000000000	0.00000000000000	0.00000000000000	0.00000000000000	0.00000000000000	0.00000000000000	18.40341100000000	0.00000000000000	0.00000000000000	0.00000000000000	0.00000000000000	
2.69498800000000	0.28960500000000	724.46630900000002	49.63160600000000	0.19381300000000	0.00000000000000	0.10464500000000	0.00000000000000	0.00000000000000	0.00000000000000	0.00000000000000	0.00000000000000	0.00000000000000	0.00000000000000	18.46213800000000	0.00000000000000	0.00000000000000	0.00000000000000	0.00000000000000	
2.69665800000000	-0.21414600000000	725.24352399999998	49.66925200000000	0.19292900000000	0.00000000000000	0.10458900000000	0.00000000000000	0.00000000000000	0.00000000000000	0.00000000000000	0.00000000000000	0.00000000000000	0.00000000000000	18.52235100000000	0.00000000000000	0.00000000000000	0.00000000000000	0.00000000000000	
2.69832500000000	-0.71975600000000	726.03451399999994	49.70634400000000	0.19204500000000	0.00000000000000	0.10453100000000	0.00000000000000	0.00000000000000	0.00000000000000	0.00000000000000	0.00000000000000	0.00000000000000	0.00000000000000	18.58398100000000	0.00000000000000	0.00000000000000	0.00000000000000	0.00000000000000	
2.69999100000000	-1.22712100000000	726.83908399999996	49.74286400000000	0.19116000000000	0.00000000000000	0.10447200000000	0.00000000000000	0.00000000000000	0.00000000000000	0.00000000000000	0.00000000000000	0.00000000000000	0.00000000000000	18.64696000000000	0.00000000000000	0.00000000000000	0.00000000000000	0.00000000000000	
2.70165200000000	-1.73611900000000	727.65706100000000	49.77880500000000	0.19027400000000	0.00000000000000	0.10441200000000	0.00000000000000	0.00000000000000	0.00000000000000	0.00000000000000	0.00000000000000	0.00000000000000	0.00000000000000	18.71122200000000	0.00000000000000	0.00000000000000	0.00000000000000	0.00000000000000	
2.70332900000000	-2.24660900000000	728.48828600000002	49.81417300000000	0.18938600000000	0.00000000000000	0.10435000000000	0.00000000000000	0.00000000000000	0.00000000000000	0.00000000000000	0.00000000000000	0.00000000000000	0.00000000000000	18.77670600000000	0.00000000000000	0.00000000000000	0.00000000000000	0.00000000000000	
2.70498400000000	-2.75843000000000	729.33262100000002	49.84898600000000	0.18849600000000	0.00000000000000	0.10428800000000	0.00000000000000	0.00000000000000	0.00000000000000	0.00000000000000	0.00000000000000	0.00000000000000	0.00000000000000	18.84334800000000	0.00000000000000	0.00000000000000	0.00000000000000	0.00000000000000	
2.70666000000000	-3.27140600000000	730.18993999999998	49.88327400000000	0.18760200000000	0.00000000000000	0.10422400000000	0.00000000000000	0.00000000000000	0.00000000000000	0.00000000000000	0.00000000000000	0.00000000000000	0.00000000000000	18.91108900000000	0.00000000000000	0.00000000000000	0.00000000000000	0.00000000000000	
2.70831700000000	-3.78533600000000	731.06013199999995	49.91707600000000	0.18670600000000	0.00000000000000	0.10415900000000	0.00000000000000	0.00000000000000	0.00000000000000	0.00000000000000	0.00000000000000	0.00000000000000	0.00000000000000	18.97987000000000	0.00000000000000	0.00000000000000	0.00000000000000	0.00000000000000	
2.70999300000000	-4.30000300000000	731.94309699999997	49.95044500000000	0.18580500000000	0.00000000000000	0.10409200000000	0.00000000000000	0.00000000000000	0.00000000000000	0.00000000000000	0.00000000000000	0.00000000000000	0.00000000000000	19.04963400000000	0.00000000000000	0.00000000000000	0.00000000000000	0.00000000000000	
2.71165300000000	-4.81517200000000	732.83874700000001	49.98344000000000	0.18490100000000	0.00000000000000	0.10402500000000	0.00000000000000	0.00000000000000	0.00000000000000	0.00000000000000	0.00000000000000	0.00000000000000	0.00000000000000	19.12032300000000	0.00000000000000	0.00000000000000	0.00000000000000	0.00000000000000	
2.71332300000000	-5.33058600000000	733.74700399999995	50.01613200000000	0.18399200000000	0.00000000000000	0.10395600000000	0.00000000000000	0.00000000000000	0.00000000000000	0.00000000000000	0.00000000000000	0.00000000000000	0.00000000000000	19.19188400000000	0.00000000000000	0.00000000000000	0.00000000000000	0.00000000000000	
2.71499100000000	-5.84597400000000	734.66779299999996	50.04860100000000	0.18307800000000	0.00000000000000	0.10388700000000	0.00000000000000	0.00000000000000	0.00000000000000	0.00000000000000	0.00000000000000	0.00000000000000	0.00000000000000	19.26426000000000	0.00000000000000	0.00000000000000	0.00000000000000	0.00000000000000	
2.71665900000000	-6.36104200000000	735.60104799999999	50.08093600000000	0.18216000000000	0.00000000000000	0.10381600000000	0.00000000000000	0.00000000000000	0.00000000000000	0.00000000000000	0.00000000000000	0.00000000000000	0.00000000000000	19.33739700000000	0.00000000000000	0.00000000000000	0.00000000000000	0.00000000000000	
2.71832000000000	-6.87548300000000	736.54670599999997	50.11323100000000	0.18123800000000	0.00000000000000	0.10374400000000	0.00000000000000	0.00000000000000	0.00000000000000	0.00000000000000	0.00000000000000	0.00000000000000	0.00000000000000	19.41124000000000	0.00000000000000	0.00000000000000	0.00000000000000	0.00000000000000	
2.71998600000000	-7.38897200000000	737.50470600000006	50.14559100000000	0.18031000000000	0.00000000000000	0.10367200000000	0.00000000000000	0.00000000000000	0.00000000000000	0.00000000000000	0.00000000000000	0.00000000000000	0.00000000000000	19.48573500000000	0.00000000000000	0.00000000000000	0.00000000000000	0.00000000000000	
2.72165800000000	-7.90116800000000	738.47498399999995	50.17812600000000	0.17937900000000	0.00000000000000	0.10359800000000	0.00000000000000	0.00000000000000	0.00000000000000	0.00000000000000	0.00000000000000	0.00000000000000	0.00000000000000	19.56082600000000	0.00000000000000	0.00000000000000	0.00000000000000	0.00000000000000	
2.72332600000000	-8.41171600000000	739.45747700000004	50.21095200000000	0.17844200000000	0.00000000000000	0.10352300000000	0.00000000000000	0.00000000000000	0.00000000000000	0.00000000000000	0.00000000000000	0.00000000000000	0.00000000000000	19.63645900000000	0.00000000000000	0.00000000000000	0.00000000000000	0.00000000000000	
2.72499200000000	-8.92024700000000	740.45211800000004	50.24419100000000	0.17750200000000	0.00000000000000	0.10344800000000	0.00000000000000	0.00000000000000	0.00000000000000	0.00000000000000	0.00000000000000	0.00000000000000	0.00000000000000	19.71257500000000	0.00000000000000	0.00000000000000	0.00000000000000	0.00000000000000	
2.72667200000000	-9.42637900000000	741.45883100000003	50.27797200000000	0.17655700000000	0.00000000000000	0.10337100000000	0.00000000000000	0.00000000000000	0.00000000000000	0.00000000000000	0.00000000000000	0.00000000000000	0.00000000000000	19.78911800000000	0.00000000000000	0.00000000000000	0.00000000000000	0.00000000000000	
2.72831800000000	-9.92972000000000	742.47753299999999	50.31242600000000	0.17561000000000	0.00000000000000	0.10329300000000	0.00000000000000	0.00000000000000	0.00000000000000	0.00000000000000	0.00000000000000	0.00000000000000	0.00000000000000	19.86602700000000	0.00000000000000	0.00000000000000	0.00000000000000	0.00000000000000	
2.72998700000000	-10.42986700000000	743.50813400000004	50.34768900000000	0.17465800000000	0.00000000000000	0.10321500000000	0.00000000000000	0.00000000000000	0.00000000000000	0.00000000000000	0.00000000000000	0.00000000000000	0.00000000000000	19.94324200000000	0.00000000000000	0.00000000000000	0.00000000000000	0.00000000000000	
2.73165400000000	-10.92640900000000	744.55052599999999	50.38390000000000	0.17370400000000	0.00000000000000	0.10313500000000	0.00000000000000	0.00000000000000	0.00000000000000	0.00000000000000	0.00000000000000	0.00000000000000	0.00000000000000	20.02070000000000	0.00000000000000	0.00000000000000	0.00000000000000	0.00000000000000	
2.73332200000000	-11.41892700000000	745.60459100000003	50.42120200000000	0.17274800000000	0.00000000000000	0.10305400000000	0.00000000000000	0.00000000000000	0.00000000000000	0.00000000000000	0.00000000000000	0.00000000000000	0.00000000000000	20.09833600000000	0.00000000000000	0.00000000000000	0.00000000000000	0.00000000000000	
2.73498800000000	-11.90699900000000	746.67019300000004	50.45973900000000	0.17179000000000	0.00000000000000	0.10297300000000	0.00000000000000	0.00000000000000	0.00000000000000	0.00000000000000	0.00000000000000	0.00000000000000	0.00000000000000	20.17608200000000	0.00000000000000	0.00000000000000	0.00000000000000	0.00000000000000	
2.73665400000000	-12.39019600000000	747.74717699999997	50.49965700000000	0.17083100000000	0.00000000000000	0.10289000000000	0.00000000000000	0.00000000000000	0.00000000000000	0.00000000000000	0.00000000000000	0.00000000000000	0.00000000000000	20.25386900000000	0.00000000000000	0.00000000000000	0.00000000000000	0.00000000000000	
2.73832400000000	-12.86808800000000	748.83536900000001	50.54110300000000	0.16987000000000	0.00000000000000	0.10280700000000	0.00000000000000	0.00000000000000	0.00000000000000	0.00000000000000	0.00000000000000	0.00000000000000	0.00000000000000	20.33162300000000	0.00000000000000	0.00000000000000	0.00000000000000	0.00000000000000	
2.73998800000000	-13.34024600000000	749.93456900000001	50.58422500000000	0.16891000000000	0.00000000000000	0.10272200000000	0.00000000000000	0.00000000000000	0.00000000000000	0.00000000000000	0.00000000000000	0.00000000000000	0.00000000000000	20.40927000000000	0.00000000000000	0.00000000000000	0.00000000000000	0.00000000000000	
2.74165300000000	-13.80623900000000	751.04455599999994	50.62916900000000	0.16795100000000	0.00000000000000	0.10263600000000	0.00000000000000	0.00000000000000	0.00000000000000	0.00000000000000	0.00000000000000	0.00000000000000	0.00000000000000	20.48673200000000	0.00000000000000	0.00000000000000	0.00000000000000	0.00000000000000	
2.74332100000000	-14.26564300000000	752.16507999999999	50.67608400000000	0.16699200000000	0.00000000000000	0.10255000000000	0.00000000000000	0.00000000000000	0.00000000000000	0.00000000000000	0.00000000000000	0.00000000000000	0.00000000000000	20.56392600000000	0.00000000000000	0.00000000000000	0.00000000000000	0.00000000000000	
2.74499200000000	-14.71803400000000	753.29586400000005	50.72511200000000	0.16603500000000	0.00000000000000	0.10246200000000	0.00000000000000	0.00000000000000	0.00000000000000	0.00000000000000	0.00000000000000	0.00000000000000	0.00000000000000	20.64077000000000	0.00000000000000	0.00000000000000	0.00000000000000	0.00000000000000	
